<?xml version="1.0" encoding="UTF-8" standalone="no"?>
<!-- Generator: Adobe Illustrator 16.0.4, SVG Export Plug-In . SVG Version: 6.00 Build 0)  -->

<svg
   xmlns:dc="http://purl.org/dc/elements/1.1/"
   xmlns:cc="http://creativecommons.org/ns#"
   xmlns:rdf="http://www.w3.org/1999/02/22-rdf-syntax-ns#"
   xmlns:svg="http://www.w3.org/2000/svg"
   xmlns="http://www.w3.org/2000/svg"
   xmlns:sodipodi="http://sodipodi.sourceforge.net/DTD/sodipodi-0.dtd"
   xmlns:inkscape="http://www.inkscape.org/namespaces/inkscape"
   version="1.1"
   id="Capa_1"
   x="0px"
   y="0px"
   width="12.073407"
   height="32.06015"
   viewBox="0 0 12.073407 32.06015"
   enable-background="new 0 0 12 32"
   xml:space="preserve"
   inkscape:version="0.47 r22583"
   sodipodi:docname="thermo-moyen-noir.svg"><metadata
   id="metadata13"><rdf:RDF><cc:Work
       rdf:about=""><dc:format>image/svg+xml</dc:format><dc:type
         rdf:resource="http://purl.org/dc/dcmitype/StillImage" /><dc:title></dc:title></cc:Work></rdf:RDF></metadata><defs
   id="defs11"><inkscape:perspective
     sodipodi:type="inkscape:persp3d"
     inkscape:vp_x="0 : 16 : 1"
     inkscape:vp_y="0 : 1000 : 0"
     inkscape:vp_z="12 : 16 : 1"
     inkscape:persp3d-origin="6 : 10.666667 : 1"
     id="perspective15" /></defs><sodipodi:namedview
   pagecolor="#ffffff"
   bordercolor="#666666"
   borderopacity="1"
   objecttolerance="10"
   gridtolerance="10"
   guidetolerance="10"
   inkscape:pageopacity="0"
   inkscape:pageshadow="2"
   inkscape:window-width="1366"
   inkscape:window-height="857"
   id="namedview9"
   showgrid="false"
   inkscape:zoom="7.375"
   inkscape:cx="6.0413109"
   inkscape:cy="16.029852"
   inkscape:window-x="0"
   inkscape:window-y="0"
   inkscape:window-maximized="0"
   inkscape:current-layer="Capa_1" />

<path
   style="fill:#ffffff;fill-opacity:1;stroke:none"
   d="M 5.9480906,11.990467 C 4.9819588,12.040397 4.969285,13.151462 4.999512,13.876011 4.92328,16.957326 4.969236,20.039921 4.956565,23.121823 3.1475619,23.76007 2.4717959,26.098095 3.4947007,27.668434 4.6299236,29.755799 8.1390431,29.418796 8.8591075,27.159959 9.4719444,25.636297 8.7262931,23.803821 7.2033303,23.163143 7.0484652,20.880715 7.1842009,18.446381 7.1249135,16.104896 7.0341632,14.888982 7.2546949,13.579738 6.8845312,12.418434 6.6633994,12.135855 6.3116958,11.950368 5.9480906,11.990467 z"
   id="path2821" /><path
   style="fill:#ffffff;fill-opacity:1;stroke:none"
   d="M 5.8591075,0.01589152 C 3.7562838,0.00227292 1.9014194,1.9589016 2.0582601,4.066739 c -0.1695929,5.7929767 -0.04741,11.590693 -0.084746,17.385593 -1.96212861,1.903933 -2.63170451,5.083161 -1.22457631,7.5 1.46192881,2.840329 5.30780651,3.94432 8.08898311,2.423729 3.0825741,-1.460053 4.1734231,-5.706484 2.3474581,-8.542373 -0.372369,-0.757245 -1.3364634,-1.228857 -1.071168,-2.186434 -0.0243,-5.86441 -0.0486,-11.7288178 -0.0729,-17.5932269 C 9.4346641,1.2890176 7.8171215,-0.16925589 5.8591075,0.01589152 z M 6.1641923,2.1769085 c 1.1398248,-0.00802 1.8870954,1.1232755 1.7164324,2.1948382 0.1149918,6.0456073 0.034651,12.0934113 0.058991,18.1399073 1.2146813,1.04054 2.4445103,2.551798 1.9194915,4.266949 C 9.4293017,29.110611 6.6944526,30.596188 4.5201245,29.613349 2.2320512,28.700084 1.2481737,25.337425 3.1175821,23.545552 3.6175453,22.990146 4.4035079,22.564435 4.1430058,21.698095 4.1880206,15.705738 4.0420999,9.7083699 4.2447007,3.7192814 4.2552747,2.7525955 5.2635182,2.0976453 6.1641923,2.1769085 z"
   id="path2823" /></svg>