<?xml version="1.0" encoding="UTF-8" standalone="no"?>
<!-- Generator: Adobe Illustrator 16.0.4, SVG Export Plug-In . SVG Version: 6.00 Build 0)  -->

<svg
   xmlns:dc="http://purl.org/dc/elements/1.1/"
   xmlns:cc="http://creativecommons.org/ns#"
   xmlns:rdf="http://www.w3.org/1999/02/22-rdf-syntax-ns#"
   xmlns:svg="http://www.w3.org/2000/svg"
   xmlns="http://www.w3.org/2000/svg"
   xmlns:sodipodi="http://sodipodi.sourceforge.net/DTD/sodipodi-0.dtd"
   xmlns:inkscape="http://www.inkscape.org/namespaces/inkscape"
   version="1.1"
   id="Capa_1"
   x="0px"
   y="0px"
   width="12.092189"
   height="31.994537"
   viewBox="0 0 12.092189 31.994537"
   enable-background="new 0 0 12 32"
   xml:space="preserve"
   inkscape:version="0.47 r22583"
   sodipodi:docname="thermo-froid-noir.svg"><metadata
   id="metadata13"><rdf:RDF><cc:Work
       rdf:about=""><dc:format>image/svg+xml</dc:format><dc:type
         rdf:resource="http://purl.org/dc/dcmitype/StillImage" /><dc:title></dc:title></cc:Work></rdf:RDF></metadata><defs
   id="defs11"><inkscape:perspective
     sodipodi:type="inkscape:persp3d"
     inkscape:vp_x="0 : 16 : 1"
     inkscape:vp_y="0 : 1000 : 0"
     inkscape:vp_z="12 : 16 : 1"
     inkscape:persp3d-origin="6 : 10.666667 : 1"
     id="perspective15" /></defs><sodipodi:namedview
   pagecolor="#ffffff"
   bordercolor="#666666"
   borderopacity="1"
   objecttolerance="10"
   gridtolerance="10"
   guidetolerance="10"
   inkscape:pageopacity="0"
   inkscape:pageshadow="2"
   inkscape:window-width="1642"
   inkscape:window-height="1033"
   id="namedview9"
   showgrid="false"
   inkscape:zoom="7.375"
   inkscape:cx="6.0411952"
   inkscape:cy="16.003046"
   inkscape:window-x="0"
   inkscape:window-y="0"
   inkscape:window-maximized="0"
   inkscape:current-layer="Capa_1" />

<path
   style="fill:#ffffff;fill-opacity:1;stroke:none"
   d="M 5.4115342,0.00420291 C 3.4170681,0.26898262 1.8354559,2.2179407 2.0433132,4.2371342 1.9556972,9.9808747 2.0207189,15.726005 2.0005172,21.470305 0.22515908,23.098988 -0.51872992,25.787284 0.38661588,28.056566 1.2086947,30.552836 3.853465,32.314356 6.4834615,31.945755 9.7947018,31.933265 12.516696,28.537825 12.03717,25.29732 11.896788,23.816117 11.06997,22.530059 10.144585,21.410983 10.119152,15.288101 10.093728,9.1652199 10.068314,3.0423386 9.5567578,1.4966535 8.2698347,0.12115146 6.5640766,0.0465758 6.1817692,0.0089872 5.7956454,-0.00873695 5.4115342,0.00420291 z M 6.0047545,2.0889487 c 0.9287048,0.042891 1.9318869,0.6574556 1.8372867,1.7067665 0.2573655,5.0232358 0.064198,10.0609138 0.1245777,15.0898438 0.06781,1.230651 -0.1356741,2.58392 0.1017775,3.737898 1.6593935,1.133723 2.4481636,3.497341 1.3516124,5.279051 C 8.282367,30.110907 4.9395998,30.584877 3.2801783,28.707593 1.7597193,27.251152 1.7963877,24.506808 3.424246,23.139796 3.7147294,22.774645 4.2893248,22.670905 4.0907555,22.080585 4.274758,15.905835 4.0407025,9.7225543 4.2717037,3.5508131 4.3504407,2.7325055 5.1936241,2.0460682 6.0047545,2.0889487 z"
   id="path2821" /><path
   style="fill:#ffffff;fill-opacity:1;stroke:none"
   d="m 5.8479749,22.940644 c -2.082039,0.05489 -3.504507,2.486763 -2.5677966,4.334745 0.9141547,2.213057 4.4680884,2.323824 5.4745762,0.127119 0.8838772,-1.777522 -0.2472358,-4.279384 -2.3220339,-4.444915 -0.194216,-0.02138 -0.38961,-0.02774 -0.5847457,-0.01695 z"
   id="path2823" /></svg>