<?xml version="1.0" encoding="UTF-8" standalone="no"?>
<!-- Generator: Adobe Illustrator 16.0.4, SVG Export Plug-In . SVG Version: 6.00 Build 0)  -->

<svg
   xmlns:dc="http://purl.org/dc/elements/1.1/"
   xmlns:cc="http://creativecommons.org/ns#"
   xmlns:rdf="http://www.w3.org/1999/02/22-rdf-syntax-ns#"
   xmlns:svg="http://www.w3.org/2000/svg"
   xmlns="http://www.w3.org/2000/svg"
   xmlns:sodipodi="http://sodipodi.sourceforge.net/DTD/sodipodi-0.dtd"
   xmlns:inkscape="http://www.inkscape.org/namespaces/inkscape"
   version="1.1"
   id="Capa_1"
   x="0px"
   y="0px"
   width="12.039366"
   height="32.062458"
   viewBox="0 0 12.039366 32.062458"
   enable-background="new 0 0 12 32"
   xml:space="preserve"
   inkscape:version="0.47 r22583"
   sodipodi:docname="thermo-chaud-noir.svg"><metadata
   id="metadata13"><rdf:RDF><cc:Work
       rdf:about=""><dc:format>image/svg+xml</dc:format><dc:type
         rdf:resource="http://purl.org/dc/dcmitype/StillImage" /><dc:title></dc:title></cc:Work></rdf:RDF></metadata><defs
   id="defs11"><inkscape:perspective
     sodipodi:type="inkscape:persp3d"
     inkscape:vp_x="0 : 16 : 1"
     inkscape:vp_y="0 : 1000 : 0"
     inkscape:vp_z="12 : 16 : 1"
     inkscape:persp3d-origin="6 : 10.666667 : 1"
     id="perspective15" /></defs><sodipodi:namedview
   pagecolor="#ffffff"
   bordercolor="#666666"
   borderopacity="1"
   objecttolerance="10"
   gridtolerance="10"
   guidetolerance="10"
   inkscape:pageopacity="0"
   inkscape:pageshadow="2"
   inkscape:window-width="1885"
   inkscape:window-height="1034"
   id="namedview9"
   showgrid="false"
   inkscape:zoom="7.375"
   inkscape:cx="6.0088591"
   inkscape:cy="16.021747"
   inkscape:window-x="0"
   inkscape:window-y="0"
   inkscape:window-maximized="0"
   inkscape:current-layer="Capa_1" />

<path
   style="fill:#ffffff;fill-opacity:1;stroke:none"
   d="M 5.9181811,3.0212174 C 5.0145899,3.0380994 4.9727952,4.0329622 5.0006698,4.7116829 4.8414518,10.856808 5.0520978,17.012497 4.769876,23.152573 4.3661998,23.45999 3.7884347,23.797997 3.4944523,24.305116 2.2875651,25.983356 3.3214516,28.806977 5.4520794,29.029692 7.4617525,29.484835 9.4429483,27.500472 9.0071642,25.495794 8.795699,24.456125 8.0468739,23.525509 7.0664862,23.110201 7.0255395,16.734971 7.1550485,10.35574 6.9859777,3.9830818 7.0451425,3.3771385 6.484549,2.960933 5.9181811,3.0212174 z"
   id="path2821" /><path
   style="fill:#ffffff;fill-opacity:1;stroke:none"
   d="M 5.769876,0.02121732 C 3.889634,0.08371243 2.1842001,1.6888461 1.980058,3.5254511 1.955204,9.5353394 1.930341,15.545228 1.905469,21.555116 c -2.74900014,2.436402 -2.50084964,7.379917 0.5974576,9.411017 2.6743892,1.983367 6.8795901,1.188735 8.5932204,-1.682204 1.556797,-2.37348 1.156396,-5.796339 -0.978813,-7.694915 C 10.072152,15.387037 10.026954,9.185059 9.9817405,2.9830818 9.3363849,1.2185652 7.7431603,-0.19111973 5.769876,0.02121732 z M 5.9690286,2.1398614 c 0.9515292,0.029887 2.1100184,0.8198954 1.8464359,1.8771123 0.025249,6.1624233 0.047817,12.3248553 0.068818,18.4872943 1.106901,0.902 2.1631205,2.129069 1.9557176,3.665241 0.1417601,2.588757 -2.9002475,4.484694 -5.226904,3.500014 -2.5191648,-0.865843 -3.4115542,-4.579946 -1.3305085,-6.36017 0.6611747,-0.411764 0.9832475,-0.947241 0.8008475,-1.75 C 4.1346381,15.708287 3.9708995,9.8518067 4.1893676,4.0042682 4.1181566,2.9557478 4.9284435,2.1305591 5.9690286,2.1398614 z"
   id="path2823" /></svg>